<svg width="32" height="25" viewBox="0 0 32 25" fill="none" xmlns="http://www.w3.org/2000/svg">
<path d="M30.4 0.010534C30.2637 -0.00351133 30.1263 -0.00351133 29.99 0.010534H1.98996C1.8105 0.0132991 1.63224 0.0402073 1.45996 0.0905339L15.91 14.4805L30.4 0.010534Z" fill="#FED253"/>
<path d="M31.88 1.40039L17.32 15.9004C16.9453 16.2729 16.4384 16.482 15.91 16.482C15.3816 16.482 14.8747 16.2729 14.5 15.9004L0.0700001 1.51039C0.0256394 1.67343 0.00211869 1.84144 0 2.01039V22.0104C0 22.5408 0.210714 23.0495 0.585786 23.4246C0.960859 23.7997 1.46957 24.0104 2 24.0104H30C30.5304 24.0104 31.0391 23.7997 31.4142 23.4246C31.7893 23.0495 32 22.5408 32 22.0104V2.01039C31.992 1.80205 31.9516 1.59623 31.88 1.40039V1.40039ZM3.37 22.0104H1.98V20.5804L9.25 13.3704L10.66 14.7804L3.37 22.0104ZM29.98 22.0104H28.58L21.29 14.7804L22.7 13.3704L29.97 20.5804L29.98 22.0104Z" fill="#FED253"/>
</svg>
