<svg width="27" height="32" viewBox="0 0 27 32" fill="none" xmlns="http://www.w3.org/2000/svg">
<path d="M26.6666 11.3147C26.6666 13.1179 26.4236 14.6601 25.9375 15.9414C25.4513 17.2226 24.7453 18.2072 23.8194 18.8953C22.8935 19.5834 21.9676 20.0816 21.0416 20.3901C20.1157 20.6985 19.0277 20.9239 17.7778 21.0663C18.6574 21.8255 19.0972 23.0356 19.0972 24.6964V31.1025H9.44443V26.4759C8.70369 26.6182 8.02082 26.6894 7.39582 26.6894C6.77082 26.6894 6.23842 26.6301 5.7986 26.5115C5.35879 26.3928 4.96527 26.2386 4.61805 26.0488C4.27083 25.859 3.99305 25.6573 3.78472 25.4438C3.57638 25.2302 3.40277 25.0286 3.26388 24.8388C3.125 24.649 3.0324 24.4829 2.98611 24.3405L2.91666 24.127C2.63888 23.4626 2.32639 22.8932 1.97916 22.4187C1.63194 21.9441 1.34259 21.6357 1.11111 21.4933L0.763888 21.2798C0.254629 20.8527 0 20.5561 0 20.3901C0 20.224 0.162037 20.1172 0.48611 20.0697H0.902776C1.45833 20.1172 1.99074 20.307 2.5 20.6392C3.00925 20.9714 3.35648 21.3035 3.54166 21.6357L3.88888 22.0628C5.13888 24.2931 7.01388 24.8388 9.51387 23.6999C9.65276 22.561 10.0694 21.6831 10.7639 21.0663C9.51387 20.9239 8.42591 20.6985 7.49999 20.3901C6.57406 20.0816 5.65971 19.5834 4.75694 18.8953C3.85416 18.2072 3.14814 17.2226 2.63888 15.9414C2.12963 14.6601 1.875 13.1179 1.875 11.3147C1.875 9.27423 2.54629 7.51847 3.88888 6.04743C3.28703 4.48149 3.35648 2.72573 4.09722 0.780164C4.2361 0.827617 4.42129 0.815753 4.65277 0.744574C4.88425 0.673395 5.46295 0.815753 6.38888 1.17165C7.3148 1.52755 8.33332 2.08512 9.44443 2.84436C10.9722 2.41729 12.5926 2.18002 14.3055 2.13257C15.9722 2.18002 17.5926 2.41729 19.1666 2.84436C20.2314 2.08512 21.2152 1.53941 22.118 1.20724C23.0208 0.875069 23.6342 0.708984 23.9583 0.708984L24.4444 0.780164C25.2314 2.72573 25.3009 4.48149 24.6527 6.04743C25.9953 7.51847 26.6666 9.27423 26.6666 11.3147ZM2.22222 20.9595C2.26851 20.8409 2.21064 20.746 2.04861 20.6748C1.88657 20.6036 1.7824 20.6273 1.73611 20.746C1.68981 20.8646 1.74768 20.9595 1.90972 21.0307C2.07176 21.1019 2.17592 21.0781 2.22222 20.9595ZM3.02083 21.8492C3.13657 21.7543 3.11342 21.6238 2.95138 21.4577C2.78935 21.2917 2.65046 21.2561 2.53472 21.351C2.41898 21.4459 2.44213 21.5764 2.60416 21.7425C2.7662 21.9085 2.90509 21.9441 3.02083 21.8492ZM3.74999 22.9881C3.88888 22.8932 3.88888 22.739 3.74999 22.5254C3.61111 22.3119 3.47222 22.2526 3.33333 22.3475C3.19444 22.4424 3.19444 22.5966 3.33333 22.8102C3.47222 23.0237 3.61111 23.083 3.74999 22.9881ZM4.82638 24.127C4.94212 23.9846 4.9074 23.8067 4.72221 23.5931C4.53703 23.3796 4.37499 23.344 4.2361 23.4864C4.09722 23.6287 4.13194 23.8067 4.34027 24.0202C4.5486 24.2337 4.71064 24.2693 4.82638 24.127ZM6.24999 24.732C6.29629 24.5659 6.19212 24.4354 5.93749 24.3405C5.68286 24.2456 5.5324 24.2931 5.4861 24.4829C5.43981 24.6727 5.54397 24.8032 5.7986 24.8744C6.05323 24.9455 6.20369 24.8981 6.24999 24.732ZM7.43054 25.1235C7.70832 25.1235 7.84721 25.0286 7.84721 24.8388C7.84721 24.649 7.70832 24.554 7.43054 24.554C7.15277 24.554 7.01388 24.649 7.01388 24.8388C7.01388 25.0286 7.15277 25.1235 7.43054 25.1235ZM8.95832 24.9811C9.09721 24.9337 9.20137 24.8744 9.27082 24.8032C9.34026 24.732 9.35184 24.6727 9.30554 24.6252C9.30554 24.388 9.16665 24.2931 8.88888 24.3405C8.74999 24.388 8.64582 24.4473 8.57638 24.5185C8.50693 24.5896 8.49536 24.6727 8.54165 24.7676C8.54165 24.9574 8.68054 25.0286 8.95832 24.9811Z" fill="#FED253"/>
</svg>
