<svg width="39" height="36" viewBox="0 0 39 36" fill="none" xmlns="http://www.w3.org/2000/svg">
<path d="M36.3203 12.0285L25.9691 2.47347C24.2534 0.889732 21.9264 0 19.5 0C17.0736 0 14.7466 0.889732 13.0308 2.47347L2.67959 12.0285C0.963876 13.6122 0 15.7602 0 18C0 20.2397 0.963876 22.3877 2.67959 23.9715L13.0308 33.5265C14.7466 35.1102 17.0736 35.9999 19.5 35.9999C21.9264 35.9999 24.2534 35.1102 25.9691 33.5265L36.3203 23.9715C38.0361 22.3877 38.9999 20.2397 38.9999 18C38.9999 15.7602 38.0361 13.6122 36.3203 12.0285V12.0285ZM19.5 23.9295C18.6564 23.9295 17.8211 23.7761 17.0418 23.4781C16.2624 23.1801 15.5543 22.7434 14.9578 22.1928C14.3613 21.6422 13.8881 20.9885 13.5653 20.2691C13.2425 19.5497 13.0763 18.7786 13.0763 18C13.0763 17.2213 13.2425 16.4502 13.5653 15.7308C13.8881 15.0114 14.3613 14.3578 14.9578 13.8072C15.5543 13.2566 16.2624 12.8198 17.0418 12.5218C17.8211 12.2238 18.6564 12.0705 19.5 12.0705C21.2036 12.0705 22.8375 12.6952 24.0422 13.8072C25.2468 14.9192 25.9236 16.4274 25.9236 18C25.9236 19.5726 25.2468 21.0808 24.0422 22.1928C22.8375 23.3048 21.2036 23.9295 19.5 23.9295Z" fill="#FED253"/>
</svg>
