<svg width="30" height="32" viewBox="0 0 30 32" fill="none" xmlns="http://www.w3.org/2000/svg">
<path d="M15 10.9272C13.6739 10.9272 12.4021 11.4672 11.4645 12.4283C10.5268 13.3894 10 14.693 10 16.0522C10 17.4115 10.5268 18.715 11.4645 19.6762C12.4021 20.6373 13.6739 21.1772 15 21.1772C16.3261 21.1772 17.5979 20.6373 18.5355 19.6762C19.4732 18.715 20 17.4115 20 16.0522C20 14.693 19.4732 13.3894 18.5355 12.4283C17.5979 11.4672 16.3261 10.9272 15 10.9272Z" fill="#FED253"/>
<path fill-rule="evenodd" clip-rule="evenodd" d="M9 0.677734C6.61305 0.677734 4.32387 1.64962 2.63604 3.37959C0.948212 5.10956 0 7.4559 0 9.90244L0 22.2021C0 24.6486 0.948212 26.9949 2.63604 28.7249C4.32387 30.4549 6.61305 31.4268 9 31.4268H21C23.3869 31.4268 25.6761 30.4549 27.364 28.7249C29.0518 26.9949 30 24.6486 30 22.2021V9.90244C30 7.4559 29.0518 5.10956 27.364 3.37959C25.6761 1.64962 23.3869 0.677734 21 0.677734L9 0.677734ZM8 16.0522C8 14.1494 8.7375 12.3244 10.0503 10.9789C11.363 9.63339 13.1435 8.87747 15 8.87747C16.8565 8.87747 18.637 9.63339 19.9497 10.9789C21.2625 12.3244 22 14.1494 22 16.0522C22 17.9551 21.2625 19.78 19.9497 21.1256C18.637 22.4711 16.8565 23.227 15 23.227C13.1435 23.227 11.363 22.4711 10.0503 21.1256C8.7375 19.78 8 17.9551 8 16.0522ZM22 8.87747H24V6.82754H22V8.87747Z" fill="#FED253"/>
</svg>
