<svg width="27" height="29" viewBox="0 0 27 29" fill="none" xmlns="http://www.w3.org/2000/svg">
<path d="M6 3.64128C6 5.27403 4.935 6.67925 2.9985 6.67925C1.176 6.67925 0 5.35398 0 3.72122C0 2.04542 1.14 0.566406 3 0.566406C4.86 0.566406 5.964 1.96547 6 3.64128ZM0 28.2402V8.25358H6V28.2402H0Z" fill="#FED253"/>
<path d="M8.99968 15.0869C8.99968 12.7115 8.92318 10.7266 8.84668 9.01231H14.2377L14.5047 11.6614H14.6187C15.3777 10.4145 17.2377 8.58643 20.3517 8.58643C24.1496 8.58643 26.9996 11.1925 26.9996 16.7997V28.2417H20.9996V17.693C20.9996 15.2422 20.0892 13.3726 17.9997 13.3726C16.4067 13.3726 15.6087 14.6949 15.1902 15.785C15.0372 16.1755 14.9997 16.7197 14.9997 17.2656V28.2417H8.99968V15.0869Z" fill="#FED253"/>
</svg>
