<svg width="30" height="27" viewBox="0 0 30 27" fill="none" xmlns="http://www.w3.org/2000/svg">
<path d="M9.94162 17.6961C9.84162 17.9049 9.84162 18.1112 9.84162 18.3188C9.94162 18.9812 10.5016 19.4681 11.1566 19.4591H12.7741V25.5784C12.7741 26.2011 12.2691 26.7188 11.6616 26.7188H8.22162C7.92738 26.7157 7.64606 26.5944 7.43822 26.3809C7.23038 26.1674 7.11265 25.8787 7.11037 25.5771V19.4604H1.24038C0.330378 19.4604 -0.277122 18.5263 0.127878 17.6961L8.82787 1.51752C8.94307 1.30448 9.1118 1.12692 9.31655 1.00329C9.5213 0.879654 9.75461 0.814453 9.99224 0.814453C10.2299 0.814453 10.4632 0.879654 10.6679 1.00329C10.8727 1.12692 11.0414 1.30448 11.1566 1.51752L14.7979 8.6734L9.94162 17.6961ZM29.8729 17.6961L21.1729 1.51752C21.0576 1.30479 20.8889 1.12752 20.6842 1.00411C20.4796 0.880689 20.2465 0.815608 20.0091 0.815608C19.7717 0.815608 19.5386 0.880689 19.334 1.00411C19.1294 1.12752 18.9607 1.30479 18.8454 1.51752L15.1016 8.67468L19.9579 17.6948C20.0591 17.9049 20.0591 18.1125 20.0591 18.3188C19.9591 18.9812 19.3979 19.4681 18.7441 19.4591H17.1241V25.5784C17.1304 26.2062 17.6241 26.7149 18.2366 26.7188H21.8791C22.1736 26.7161 22.4553 26.5952 22.6638 26.382C22.8723 26.1688 22.9908 25.8803 22.9941 25.5784V19.4604H28.7591C29.6716 19.4604 30.2766 18.5263 29.8716 17.6961H29.8729Z" fill="#FED253"/>
</svg>
