<svg width="21" height="27" viewBox="0 0 21 27" fill="none" xmlns="http://www.w3.org/2000/svg">
<path d="M10.5 27C8.60539 25.3843 6.84927 23.6129 5.24999 21.7045C2.84999 18.8386 1.31834e-06 14.5704 1.31834e-06 10.5032C-0.00103953 8.42606 0.614262 6.39529 1.76804 4.66789C2.92181 2.9405 4.56219 1.59414 6.48159 0.799205C8.40098 0.00426924 10.5131 -0.20351 12.5506 0.202163C14.5882 0.607836 16.4596 1.60873 17.928 3.07816C18.9056 4.05126 19.6805 5.20855 20.2078 6.48306C20.7351 7.75757 21.0043 9.12398 20.9999 10.5032C20.9999 14.5704 18.15 18.8386 15.75 21.7045C14.1507 23.6129 12.3946 25.3843 10.5 27ZM10.5 6.00409C9.3065 6.00409 8.16191 6.47811 7.318 7.32186C6.47409 8.16561 5.99999 9.30998 5.99999 10.5032C5.99999 11.6965 6.47409 12.8408 7.318 13.6846C8.16191 14.5283 9.3065 15.0023 10.5 15.0023C11.6934 15.0023 12.838 14.5283 13.6819 13.6846C14.5259 12.8408 15 11.6965 15 10.5032C15 9.30998 14.5259 8.16561 13.6819 7.32186C12.838 6.47811 11.6934 6.00409 10.5 6.00409Z" fill="#FED253"/>
</svg>
