<svg width="30" height="25" viewBox="0 0 30 25" fill="none" xmlns="http://www.w3.org/2000/svg">
<path d="M29.9412 2.97699C28.8181 3.48386 27.6283 3.81843 26.41 3.96995C27.6926 3.17974 28.653 1.94051 29.1138 0.481115C27.925 1.19221 26.6075 1.70983 25.205 1.99811C24.2797 0.983915 23.0536 0.311249 21.7171 0.0845708C20.3805 -0.142107 19.0084 0.0898867 17.8137 0.744528C16.619 1.39917 15.6686 2.43982 15.1101 3.70489C14.5516 4.96996 14.4162 6.38865 14.725 7.74067C9.6125 7.49339 5.08375 4.97573 2.05 1.17299C1.49849 2.13369 1.21083 3.22943 1.2175 4.34408C1.2175 6.53501 2.305 8.46073 3.9525 9.59207C2.97607 9.56021 2.02121 9.28961 1.1675 8.80282V8.8797C1.16695 10.3357 1.65784 11.7471 2.55688 12.8743C3.45593 14.0016 4.70777 14.7753 6.1 15.0643C5.19787 15.312 4.25302 15.3493 3.335 15.1732C3.73015 16.4263 4.49708 17.5216 5.52877 18.3065C6.56046 19.0913 7.80544 19.5265 9.09 19.5512C6.91441 21.3013 4.2281 22.2512 1.4625 22.2482C0.975 22.2482 0.48875 22.2188 0 22.1624C2.81964 24.0129 6.09814 24.9952 9.44625 24.9927C20.7625 24.9927 26.9438 15.3884 26.9438 7.07442C26.9438 6.80536 26.9438 6.53629 26.925 6.26723C28.1325 5.37659 29.174 4.27081 30 3.00261L29.9412 2.97699Z" fill="#FED253"/>
</svg>
