<svg width="817" height="261" viewBox="0 0 817 261" fill="none" xmlns="http://www.w3.org/2000/svg">
<path d="M100.266 16.5938C101.109 20.0625 100.781 23.6719 99.2812 27.4219C97.7812 31.125 95.6719 34.5469 92.9531 37.6875C90.4219 40.6406 87.6797 42.8906 84.7266 44.4375C81.9141 45.9375 79.5938 46.2891 77.7656 45.4922C77.3906 45.3516 76.8984 44.9297 76.2891 44.2266C75.7266 43.5234 75.3516 43.125 75.1641 43.0312C77.0859 43.875 79.5469 43.4531 82.5469 41.7656C88.125 38.6719 92.4844 33.7969 95.625 27.1406C97.2188 23.6719 97.9922 20.4609 97.9453 17.5078C97.9453 15.8203 97.6406 14.1094 97.0312 12.375C96.4219 10.6406 95.5312 9.30469 94.3594 8.36719C93.4688 7.66406 92.8359 7.07813 92.4609 6.60938C92.0859 6.14062 92.1094 6.09375 92.5312 6.46875C96.8906 9.89063 99.4688 13.2656 100.266 16.5938ZM21.7266 163.266C22.1016 163.453 22.5703 163.875 23.1328 164.531C23.7422 165.234 24.1406 165.633 24.3281 165.727C20.3906 163.57 16.9922 160.875 14.1328 157.641C11.3203 154.406 9.58594 150.797 8.92969 146.812C8.36719 143.297 8.60156 139.758 9.63281 136.195C10.7109 132.68 12.4688 129.633 14.9062 127.055C14.9531 127.008 15.2109 127.195 15.6797 127.617C16.1484 127.992 16.5938 128.391 17.0156 128.812C17.4844 129.234 17.6953 129.469 17.6484 129.516C13.6641 133.781 11.5547 138.961 11.3203 145.055C11.2266 148.43 11.8359 151.523 13.1484 154.336C14.8359 158.086 17.6953 161.062 21.7266 163.266ZM71.1562 84.375C73.6875 85.7344 76.1016 87.5156 78.3984 89.7188C80.6953 91.875 82.2891 94.0547 83.1797 96.2578C83.8359 97.8984 84.2109 99.7031 84.3047 101.672C84.4453 103.594 84.2578 105.586 83.7422 107.648C83.2734 109.664 82.7344 111.586 82.125 113.414C81.5625 115.242 80.7188 117.234 79.5938 119.391C78.5156 121.5 77.6016 123.234 76.8516 124.594C76.1016 125.906 75.1875 127.477 74.1094 129.305C65.0156 144.492 55.4062 155.297 45.2812 161.719C42.1406 163.734 39.1641 164.953 36.3516 165.375C33.5859 165.797 30.9609 165.516 28.4766 164.531C25.9922 163.547 23.3672 161.859 20.6016 159.469C18.4922 157.641 17.0625 156.188 16.3125 155.109C16.125 154.922 16.1016 154.852 16.2422 154.898C16.3359 154.898 16.4766 154.969 16.6641 155.109C13.9453 150.797 13.5469 145.477 15.4688 139.148L15.8203 139.43C16.0547 139.617 16.1484 139.734 16.1016 139.781C14.2266 145.969 14.625 151.219 17.2969 155.531C17.7656 155.953 18.3047 156.422 18.9141 156.938C20.4141 158.25 22.2188 158.93 24.3281 158.977C26.4375 159.07 28.5703 158.625 30.7266 157.641C32.9297 156.703 34.8516 155.719 36.4922 154.688C38.1797 153.656 39.7969 152.531 41.3438 151.312C47.2031 146.625 53.5781 139.57 60.4688 130.148C66.3281 122.133 70.5703 114.539 73.1953 107.367C74.7891 103.055 75.6797 99.3047 75.8672 96.1172C75.9609 94.2422 75.8906 92.6719 75.6562 91.4062C75.2812 89.4375 74.4375 87.7031 73.125 86.2031L71.7188 85.0781C72.1406 85.4531 72.4219 85.7109 72.5625 85.8516C72.3281 85.6641 72.0703 85.5234 71.7891 85.4297C71.6953 85.3828 71.5781 85.3594 71.4375 85.3594C71.3438 85.3125 71.2266 85.2891 71.0859 85.2891C70.9453 85.2422 70.8281 85.2188 70.7344 85.2188C70.1719 85.1719 69.375 85.2422 68.3438 85.4297C66.8438 85.7578 65.0625 86.4844 63 87.6094C59.7188 89.3906 55.3125 92.3672 49.7812 96.5391C44.2969 100.664 40.4297 103.43 38.1797 104.836C36.2109 106.102 34.4766 107.133 32.9766 107.93C31.4766 108.68 29.6719 109.43 27.5625 110.18C25.4531 110.883 23.4141 111.117 21.4453 110.883C19.5234 110.602 17.7656 109.805 16.1719 108.492C15.2812 107.789 14.6484 107.203 14.2734 106.734C14.0859 106.5 13.9922 106.359 13.9922 106.312C13.9922 106.312 14.1094 106.406 14.3438 106.594C17.3438 109.031 21.5859 109.125 27.0703 106.875C29.9766 105.703 32.8125 104.227 35.5781 102.445C38.3906 100.664 41.7188 98.3203 45.5625 95.4141C49.4531 92.4609 52.0547 90.5156 53.3672 89.5781C58.0547 86.25 61.8047 84.1406 64.6172 83.25C66.9141 82.5469 69.0938 82.9219 71.1562 84.375ZM18.6328 103.922C17.8359 103.594 16.2188 102.305 13.7812 100.055C11.3906 97.7578 9.65625 95.1094 8.57812 92.1094C7.54688 89.1094 7.07812 86.1328 7.17188 83.1797C7.26562 80.1797 7.875 76.875 9 73.2656C10.1719 69.6094 11.4375 66.3516 12.7969 63.4922C14.2031 60.5859 15.9844 57.375 18.1406 53.8594C20.3438 50.2969 22.1719 47.4609 23.625 45.3516C25.125 43.2422 26.8828 40.8281 28.8984 38.1094C30.7734 35.5781 32.625 33.1875 34.4531 30.9375C36.2812 28.6406 38.6484 25.8984 41.5547 22.7109C44.4609 19.5234 47.2734 16.7109 49.9922 14.2734C52.7578 11.8359 55.8281 9.51562 59.2031 7.3125C62.625 5.10938 65.8828 3.51562 68.9766 2.53125C72.0703 1.5 75.2812 1.17188 78.6094 1.54688C81.9375 1.875 85.0547 3.07031 87.9609 5.13281C90.2578 6.77344 92.1328 8.41406 93.5859 10.0547C94.9922 11.5078 95.5312 12.1875 95.2031 12.0938C96.9844 14.5313 96.8438 18.1875 94.7812 23.0625C92.25 29.25 88.8047 33.7734 84.4453 36.6328L83.7422 36.0703C87.3984 33.6797 90.5859 29.6953 93.3047 24.1172C94.5703 21.4453 95.3438 19.0781 95.625 17.0156C95.9062 14.8594 95.6719 13.1719 94.9219 11.9531L94.8516 11.8828C94.8047 11.8359 94.7578 11.8125 94.7109 11.8125C92.0859 9.9375 89.2266 8.88281 86.1328 8.64844C83.0391 8.36719 80.0391 8.71875 77.1328 9.70312C74.2266 10.6875 71.1562 12.2109 67.9219 14.2734C64.7344 16.3359 61.8281 18.5156 59.2031 20.8125C56.625 23.0625 53.9531 25.6641 51.1875 28.6172C48.4219 31.5234 46.1719 34.0312 44.4375 36.1406C42.7031 38.2031 40.9688 40.3359 39.2344 42.5391C30.0938 54.2578 23.4141 65.6953 19.1953 76.8516C16.9453 82.7578 15.6797 87.7266 15.3984 91.7578C15.2578 93.9609 15.3281 95.8828 15.6094 97.5234C15.75 98.3203 15.9844 99.1172 16.3125 99.9141C16.6875 100.711 17.0156 101.367 17.2969 101.883C17.625 102.352 17.9297 102.797 18.2109 103.219C18.5391 103.641 18.7031 103.875 18.7031 103.922C20.625 105.141 24 104.344 28.8281 101.531C31.7344 99.7969 36.1172 96.6797 41.9766 92.1797C47.8828 87.6797 52.5703 84.4922 56.0391 82.6172C61.1953 79.7578 65.625 78.5859 69.3281 79.1016C72.5625 79.5234 75.3984 81.375 77.8359 84.6562L77.5547 84.4453C77.3672 84.3047 77.25 84.1875 77.2031 84.0938C73.6875 79.4531 68.5547 78.375 61.8047 80.8594C58.7109 81.9844 55.6875 83.4844 52.7344 85.3594C49.8281 87.2344 46.3594 89.7422 42.3281 92.8828C38.3438 96.0234 35.6719 98.0625 34.3125 99C30.4219 101.766 27.5625 103.477 25.7344 104.133C22.8281 105.211 20.4609 105.141 18.6328 103.922ZM141.5 115.805C141.5 116.086 141.5 117.586 141.5 120.305C141.547 122.977 141.593 124.875 141.64 126C141.734 127.078 141.992 128.555 142.414 130.43C142.836 132.305 143.422 133.852 144.172 135.07C143.843 134.555 142.578 133.523 140.375 131.977C138.218 130.383 136.836 129.094 136.226 128.109C135.523 127.031 134.937 125.742 134.468 124.242C134.047 122.695 133.718 121.383 133.484 120.305C133.25 119.18 133.086 117.539 132.992 115.383C132.898 113.18 132.851 111.703 132.851 110.953C132.851 110.156 132.898 108.469 132.992 105.891C133.086 103.312 133.132 101.906 133.132 101.672C132.242 107.438 130.906 112.875 129.125 117.984C128.703 119.156 128.257 120.258 127.789 121.289C127.367 122.32 126.804 123.469 126.101 124.734C125.398 126 124.625 127.078 123.781 127.969C122.984 128.859 122.093 129.633 121.109 130.289C120.172 130.898 119.093 131.203 117.875 131.203C116.656 131.156 115.414 130.758 114.148 130.008C113.82 129.82 113.351 129.398 112.742 128.742C112.132 128.086 111.734 127.711 111.547 127.617C115.015 129.633 118.25 128.906 121.25 125.438C123.5 122.812 125.492 118.711 127.226 113.133C128.867 107.93 130.062 102.164 130.812 95.8359C131.515 90.2578 131.797 84.6562 131.656 79.0312C131.515 75.8906 131.422 74.0156 131.375 73.4062C131.281 75.1875 131.211 76.4531 131.164 77.2031C130.742 89.1094 128.937 100.43 125.75 111.164C125.281 112.711 124.882 113.977 124.554 114.961C124.273 115.898 123.711 117.352 122.867 119.32C122.023 121.242 121.179 122.766 120.336 123.891C119.539 124.969 118.507 125.883 117.242 126.633C116.023 127.383 114.734 127.57 113.375 127.195C113.468 127.289 113.562 127.336 113.656 127.336C113.422 127.289 113.047 127.148 112.531 126.914C112.437 126.914 112.343 126.867 112.25 126.773C110.234 125.836 108.078 124.406 105.781 122.484C103.531 120.562 101.75 118.266 100.437 115.594C97.8122 110.25 97.3669 102.234 99.1012 91.5469C101.07 79.5 104.375 71.8594 109.015 68.625C109.812 68.0625 110.609 67.6641 111.406 67.4297C112.203 67.1484 113.047 67.125 113.937 67.3594C114.828 67.5938 115.554 67.7812 116.117 67.9219C116.679 68.0625 117.453 68.5312 118.437 69.3281C119.422 70.0781 120.078 70.5938 120.406 70.875C120.734 71.1094 121.437 71.7422 122.515 72.7734C123.593 73.7578 124.179 74.2969 124.273 74.3906C125.07 75.1406 125.797 75.7969 126.453 76.3594L126.523 76.4297C123.804 74.7422 121.343 74.2266 119.14 74.8828C117.828 75.2578 116.328 76.5 114.64 78.6094C112.156 81.75 110.07 86.6719 108.382 93.375C106.836 99.5625 106.156 105.586 106.343 111.445C106.437 115.242 106.789 117.914 107.398 119.461C108.523 122.367 110.07 124.664 112.039 126.352C114.945 127.477 117.664 126.094 120.195 122.203C122.211 119.109 124.039 114.562 125.679 108.562C126.992 103.734 128.14 97.9219 129.125 91.125C129.968 84.9844 130.437 79.6875 130.531 75.2344C130.672 71.5781 130.578 69.0938 130.25 67.7812C130.203 67.6406 130.132 67.4297 130.039 67.1484C129.992 66.8672 129.945 66.6797 129.898 66.5859C129.898 66.5391 129.875 66.4688 129.828 66.375C129.781 66.2344 129.734 66.1406 129.687 66.0938L129.898 66.3047C131.304 66.7266 132.898 67.7812 134.679 69.4688C136.461 71.1094 137.773 72.6094 138.617 73.9688C139.226 74.9531 139.718 76.2188 140.093 77.7656C140.468 79.2656 140.679 80.4375 140.726 81.2812C140.82 82.0781 140.89 83.6016 140.937 85.8516C141.031 88.0547 141.078 89.25 141.078 89.4375C141.218 92.5312 141.289 97.0312 141.289 102.938C141.336 108.797 141.406 113.086 141.5 115.805ZM229.07 116.086C229.07 116.508 228.976 117.961 228.788 120.445C228.648 122.93 228.577 124.781 228.577 126C228.577 127.219 228.718 128.766 228.999 130.641C229.327 132.469 229.867 133.945 230.617 135.07C230.242 134.508 228.952 133.453 226.749 131.906C224.593 130.312 223.21 129.047 222.601 128.109C221.57 126.562 220.867 124.523 220.492 121.992C220.117 119.414 219.976 117.141 220.07 115.172C220.163 113.203 220.351 110.648 220.632 107.508C220.96 104.367 221.148 102.305 221.195 101.32C221.617 92.7422 221.734 86.6953 221.546 83.1797C221.312 79.2422 221.077 76.8047 220.843 75.8672C220.093 73.0078 218.898 71.0156 217.257 69.8906C215.804 69.7969 214.21 70.7109 212.476 72.6328C210.601 74.7891 208.726 78.0469 206.851 82.4062C205.163 86.2031 203.499 90.9609 201.859 96.6797C199.562 104.648 197.968 112.688 197.077 120.797C196.609 127.641 197.218 132.398 198.906 135.07C198.531 134.508 197.242 133.453 195.038 131.906C192.882 130.312 191.499 129.047 190.89 128.109C189.859 126.562 189.156 124.523 188.781 121.992C188.406 119.414 188.265 117.141 188.359 115.172C188.452 113.203 188.64 110.648 188.921 107.508C189.249 104.367 189.437 102.305 189.484 101.32C189.906 92.2266 190.046 86.1797 189.906 83.1797C189.671 79.4297 189.413 76.9922 189.132 75.8672C188.382 73.0078 187.187 71.0156 185.546 69.8906C184.046 69.7969 182.406 70.7812 180.624 72.8438C178.749 75.0938 176.804 78.5859 174.788 83.3203C172.867 87.8672 171.132 93 169.585 98.7188C166.304 110.766 164.64 122.227 164.593 133.102C164.921 133.852 165.226 134.508 165.507 135.07C165.179 134.555 163.913 133.523 161.71 131.977C159.554 130.383 158.171 129.094 157.562 128.109C156.437 126.375 155.593 124.125 155.031 121.359C154.515 118.594 154.234 116.18 154.187 114.117C154.187 112.055 154.234 109.289 154.327 105.82C154.421 102.352 154.468 100.078 154.468 99C154.374 88.2188 154.257 81.75 154.117 79.5938C153.695 70.9219 152.546 66.4219 150.671 66.0938C152.077 66.375 153.742 67.3828 155.663 69.1172C157.632 70.8516 159.062 72.4688 159.952 73.9688C160.562 74.9531 161.054 76.2188 161.429 77.7656C161.804 79.2656 162.015 80.4375 162.062 81.2812C162.156 82.0781 162.226 83.6016 162.273 85.8516C162.367 88.0547 162.413 89.25 162.413 89.4375C162.554 92.625 162.624 97.4062 162.624 103.781C163.843 97.7344 165.46 91.8281 167.476 86.0625C169.773 79.5938 172.117 74.625 174.507 71.1562C177.038 67.3594 179.546 65.4141 182.031 65.3203C182.406 65.3203 182.898 65.7422 183.507 66.5859C184.117 67.3828 184.515 67.7812 184.702 67.7812C182.312 67.875 179.827 69.8203 177.249 73.6172C174.718 77.2734 172.351 82.2188 170.148 88.4531C165.835 100.734 163.445 113.133 162.976 125.648C163.117 127.711 163.421 129.562 163.89 131.203C164.031 125.344 164.663 119.039 165.788 112.289C168.132 98.9766 171.413 87.9609 175.632 79.2422C178.632 72.9141 181.445 69.5859 184.07 69.2578H184.14H184.562H184.773C185.101 69.2578 185.406 69.3281 185.687 69.4688C187.093 69.8906 188.617 70.8516 190.257 72.3516C191.945 73.8516 193.351 75.3516 194.476 76.8516C196.538 79.5234 197.71 83.7656 197.992 89.5781C198.367 88.2656 198.742 87.0938 199.117 86.0625C201.367 79.7344 203.734 74.7656 206.218 71.1562C208.749 67.3594 211.257 65.4141 213.742 65.3203C214.07 65.3203 214.538 65.7422 215.148 66.5859C215.757 67.3828 216.179 67.7812 216.413 67.7812C213.976 67.875 211.468 69.8203 208.89 73.6172C206.452 77.1328 204.109 82.0781 201.859 88.4531C200.359 92.6719 199.07 97.1719 197.992 101.953C197.945 103.125 197.851 104.883 197.71 107.227C197.617 109.523 197.546 111.258 197.499 112.43C197.546 112.102 197.617 111.633 197.71 111.023C197.851 110.414 197.945 109.969 197.992 109.688C198.179 108.609 198.531 106.992 199.046 104.836C199.609 102.633 200.359 99.7969 201.296 96.3281C202.234 92.8125 203.312 89.4141 204.531 86.1328C205.796 82.8516 207.109 79.7812 208.468 76.9219C209.874 74.0625 211.374 71.9531 212.968 70.5938C214.609 69.1875 216.202 68.8594 217.749 69.6094C219.156 70.125 220.656 71.1094 222.249 72.5625C223.843 74.0156 225.156 75.4453 226.187 76.8516C227.171 78.1641 227.921 79.7109 228.437 81.4922C228.999 83.2266 229.351 84.7734 229.492 86.1328C229.632 87.4453 229.726 89.1797 229.773 91.3359C229.82 95.2266 229.82 97.9688 229.773 99.5625C229.726 101.156 229.609 103.922 229.421 107.859C229.234 111.75 229.117 114.492 229.07 116.086ZM283.944 115.805C283.944 116.414 283.944 117.633 283.944 119.461C283.944 121.289 283.968 122.719 284.015 123.75C284.108 124.781 284.226 126.07 284.366 127.617C284.507 129.164 284.765 130.547 285.14 131.766C285.562 132.984 286.077 134.086 286.687 135.07C286.358 134.555 285.093 133.523 282.89 131.977C280.687 130.383 279.28 129.094 278.671 128.109C277.546 126.375 276.726 124.125 276.21 121.359C275.694 118.594 275.413 116.18 275.366 114.117C275.319 112.055 275.343 109.312 275.437 105.891C275.577 102.422 275.648 100.125 275.648 99C275.648 98.3438 275.624 97.4062 275.577 96.1875C275.577 94.9688 275.577 94.0312 275.577 93.375C272.437 105.516 268.733 115.664 264.468 123.82C263.577 125.508 262.898 126.773 262.429 127.617C261.96 128.414 261.187 129.469 260.108 130.781C259.077 132.047 258.023 132.984 256.944 133.594C256.335 133.922 255.726 134.133 255.116 134.227C254.507 134.273 253.968 134.227 253.499 134.086C253.03 133.945 252.491 133.664 251.882 133.242C251.319 132.82 250.851 132.445 250.476 132.117C250.148 131.789 249.702 131.344 249.14 130.781C248.905 130.5 248.812 130.359 248.858 130.359C248.952 130.359 249.093 130.453 249.28 130.641C250.218 131.484 251.085 131.906 251.882 131.906C252.398 131.906 253.03 131.742 253.78 131.414C254.858 130.945 256.124 129.82 257.577 128.039C259.827 125.273 262.101 121.219 264.398 115.875C266.413 111.422 268.429 105.938 270.444 99.4219C272.366 93.1406 273.796 87.75 274.733 83.25C274.78 82.9219 274.874 82.4297 275.015 81.7734C275.155 81.1172 275.249 80.625 275.296 80.2969V79.5938C275.108 76.6875 274.968 74.9531 274.874 74.3906C274.593 76.4062 274.148 78.7734 273.538 81.4922C271.007 93.9141 267.491 105.352 262.991 115.805C260.413 121.898 258.21 125.977 256.382 128.039C254.413 130.289 252.608 130.922 250.968 129.938L250.898 129.867C250.851 129.867 249.937 129.141 248.155 127.688C248.015 127.594 247.663 127.266 247.101 126.703C246.398 126 245.765 125.273 245.202 124.523C244.64 123.773 244.148 122.93 243.726 121.992C243.304 121.055 242.952 120.281 242.671 119.672C242.39 119.016 242.132 118.102 241.898 116.93C241.71 115.711 241.546 114.844 241.405 114.328C241.312 113.812 241.241 112.828 241.194 111.375C241.148 109.922 241.101 109.008 241.054 108.633C241.054 108.211 241.03 107.18 240.983 105.539C240.983 103.852 240.983 102.844 240.983 102.516C240.983 101.859 241.007 98.3438 241.054 91.9688C241.101 85.5938 241.03 82.0781 240.843 81.4219C240.468 73.9688 239.835 69.3516 238.944 67.5703C238.523 66.7266 238.054 66.2344 237.538 66.0938C238.944 66.375 240.608 67.3828 242.53 69.1172C244.452 70.8047 245.882 72.4219 246.819 73.9688C247.288 74.7188 247.663 75.5391 247.944 76.4297C248.226 77.2734 248.437 78.2812 248.577 79.4531C248.718 80.5781 248.812 81.4688 248.858 82.125C248.905 82.7812 248.929 83.8125 248.929 85.2188C248.976 86.625 248.999 87.5156 248.999 87.8906C249.093 90.75 249.116 94.7109 249.069 99.7734C249.069 104.836 249.093 108.797 249.14 111.656C249.233 116.719 249.444 120.492 249.773 122.977C249.773 123.023 249.796 123.258 249.843 123.68C249.89 124.102 249.937 124.477 249.983 124.805C250.03 125.133 250.077 125.555 250.124 126.07C250.218 126.539 250.312 126.961 250.405 127.336C250.546 127.664 250.687 128.016 250.827 128.391C251.015 128.766 251.226 129.07 251.46 129.305C251.741 129.492 252.023 129.609 252.304 129.656C253.663 129.375 255.233 127.945 257.015 125.367C259.124 122.32 261.327 117.914 263.624 112.148C265.733 106.711 267.632 101.062 269.319 95.2031C271.101 88.9219 272.437 83.4141 273.327 78.6797C273.89 75.5391 274.241 73.1016 274.382 71.3672C273.773 68.0391 272.929 66.2812 271.851 66.0938C273.257 66.375 274.921 67.3828 276.843 69.1172C278.812 70.8516 280.241 72.4688 281.132 73.9688C281.741 74.9531 282.21 76.1953 282.538 77.6953C282.913 79.1953 283.148 80.4141 283.241 81.3516C283.335 82.2422 283.405 83.7188 283.452 85.7812C283.499 87.8438 283.523 89.0625 283.523 89.4375C283.663 92.5312 283.733 97.0312 283.733 102.938C283.78 108.797 283.851 113.086 283.944 115.805ZM308.374 130.781H308.303C307.507 130.594 306.639 130.266 305.702 129.797C303.217 128.672 301.132 127.078 299.444 125.016C297.757 122.953 296.514 120.727 295.717 118.336C294.967 115.945 294.475 113.297 294.241 110.391C294.007 107.484 293.983 104.766 294.171 102.234C294.405 99.7031 294.78 97.1484 295.296 94.5703C295.717 92.4609 296.116 90.6094 296.491 89.0156C296.866 87.4219 297.428 85.4297 298.178 83.0391C298.928 80.6484 299.725 78.5859 300.569 76.8516C301.413 75.1172 302.491 73.4297 303.803 71.7891C305.116 70.1016 306.546 68.8125 308.092 67.9219C309.217 67.3125 310.342 66.9609 311.467 66.8672C312.592 66.7266 313.671 66.8672 314.702 67.2891C315.78 67.6641 316.788 68.1562 317.725 68.7656C318.663 69.3281 319.6 70.1016 320.538 71.0859C321.475 72.0234 322.272 72.8906 322.928 73.6875C323.632 74.4375 324.358 75.3047 325.108 76.2891C325.061 76.2422 324.991 76.1719 324.897 76.0781C324.803 75.9375 324.733 75.8438 324.686 75.7969C325.483 76.7812 325.999 78.0469 326.233 79.5938C326.655 82.4531 325.882 85.8281 323.913 89.7188C322.038 93.4219 319.53 96.9844 316.389 100.406C313.249 103.828 310.202 106.477 307.249 108.352C305.327 109.617 303.639 110.414 302.186 110.742C302.186 110.883 302.163 111.094 302.116 111.375C302.116 111.609 302.116 111.797 302.116 111.938C303.663 111.469 305.163 110.789 306.616 109.898C313.507 105.961 319.178 100.359 323.632 93.0938C325.038 90.8438 326.116 88.6406 326.866 86.4844C327.616 84.2812 327.874 81.9141 327.639 79.3828C327.452 76.8047 326.514 74.5781 324.827 72.7031C324.733 72.6094 324.686 72.5391 324.686 72.4922C324.827 72.4922 325.061 72.6562 325.389 72.9844C326.092 73.5469 326.702 74.1094 327.217 74.6719C329.936 77.7188 330.991 81.3047 330.382 85.4297C329.35 92.3203 325.014 99.2812 317.374 106.312C314.046 109.406 310.882 111.68 307.882 113.133C305.538 114.258 303.592 114.797 302.046 114.75C302.046 114.844 302.022 114.984 301.975 115.172C301.975 115.359 301.975 115.5 301.975 115.594C301.975 118.406 302.163 120.633 302.538 122.273C302.725 123.07 303.007 123.961 303.382 124.945C303.803 125.883 304.507 126.961 305.491 128.18C306.522 129.398 307.647 130.125 308.866 130.359C312.007 130.594 315.382 129.539 318.991 127.195C321.616 125.508 323.889 123.422 325.811 120.938C327.733 118.453 329.116 115.758 329.96 112.852L330.311 113.133C330.592 113.32 330.71 113.438 330.663 113.484C329.819 116.484 328.366 119.273 326.303 121.852C324.288 124.383 321.897 126.492 319.132 128.18C315.194 130.523 311.608 131.391 308.374 130.781ZM323.632 74.8125C322.553 74.2969 321.475 74.0156 320.397 73.9688C319.319 73.9219 318.335 74.1094 317.444 74.5312C316.553 74.9062 315.686 75.4219 314.842 76.0781C313.999 76.7344 313.202 77.5781 312.452 78.6094C311.749 79.5938 311.069 80.6016 310.413 81.6328C309.803 82.6641 309.217 83.8359 308.655 85.1484C308.092 86.4141 307.6 87.6094 307.178 88.7344C306.757 89.8125 306.358 90.9844 305.983 92.25C305.608 93.4688 305.303 94.5 305.069 95.3438C304.835 96.1406 304.6 96.9844 304.366 97.875C303.288 102.234 302.585 106.266 302.257 109.969C303.1 109.688 304.53 108.938 306.546 107.719C312.592 103.781 317.702 98.3906 321.874 91.5469C322.624 90.2812 323.28 89.0156 323.842 87.75C324.405 86.4375 324.897 85.0078 325.319 83.4609C325.741 81.9141 325.835 80.4141 325.6 78.9609C325.413 77.4609 324.874 76.1953 323.983 75.1641L323.632 74.8125ZM333.827 113.062L334.249 113.414C334.483 113.648 334.671 113.859 334.811 114.047C334.999 114.188 335.092 114.305 335.092 114.398C334.436 118.992 331.741 123.516 327.007 127.969C322.038 132.609 317.022 134.742 311.96 134.367C311.866 134.367 311.749 134.32 311.608 134.227C311.467 134.133 311.327 134.039 311.186 133.945C311.092 133.805 310.975 133.664 310.835 133.523C310.694 133.383 310.6 133.289 310.553 133.242C310.507 133.195 310.296 132.961 309.921 132.539C309.546 132.117 309.311 131.906 309.217 131.906C314.327 132.281 319.342 130.172 324.264 125.578C328.952 121.125 331.647 116.578 332.35 111.938L332.702 112.219C332.936 112.406 333.171 112.594 333.405 112.781C333.639 112.922 333.78 113.016 333.827 113.062ZM351.084 135.703C351.084 136.875 351.014 139.359 350.873 143.156C350.733 147 350.663 149.906 350.663 151.875C350.663 153.844 350.827 156.305 351.155 159.258C351.483 162.258 352.022 164.883 352.772 167.133C352.538 166.383 351.811 165.609 350.592 164.812C349.373 164.062 348.131 163.242 346.866 162.352C345.647 161.508 344.897 160.641 344.616 159.75C344.006 157.969 343.561 155.883 343.28 153.492C342.998 151.102 342.834 149.203 342.788 147.797C342.741 146.438 342.741 144.141 342.788 140.906C342.834 137.672 342.858 135.727 342.858 135.07C342.858 132.867 343.116 119.391 343.631 94.6406C344.006 76.2656 344.03 63.0469 343.702 54.9844C343.42 48.8906 342.975 44.1094 342.366 40.6406C342.272 40.125 342.061 39.3047 341.733 38.1797C341.405 37.0547 341.194 36.1875 341.1 35.5781C341.1 35.4844 340.959 35.2031 340.678 34.7344C340.397 34.2188 340.28 33.9141 340.327 33.8203H340.397C339.366 32.5078 338.498 31.8281 337.795 31.7812C340.561 32.0625 343.163 33.8203 345.6 37.0547C348.038 40.2891 349.584 43.4531 350.241 46.5469C350.756 48.9375 351.178 51.375 351.506 53.8594C351.834 56.3437 352.045 59.2031 352.139 62.4375C352.233 65.625 352.28 68.0391 352.28 69.6797C352.28 71.2734 352.233 74.1328 352.139 78.2578C352.092 82.3359 352.069 84.7969 352.069 85.6406C352.022 91.5469 351.858 100.102 351.577 111.305C351.295 122.508 351.131 130.641 351.084 135.703ZM457.177 160.383C457.412 160.805 456.099 159.82 453.24 157.43C452.209 156.539 451.529 155.93 451.201 155.602C448.107 152.602 445.834 149.086 444.381 145.055C442.974 141.07 441.873 136.289 441.076 130.711C440.842 129.305 440.631 127.828 440.443 126.281C440.256 124.688 440.092 123.281 439.951 122.062C439.81 120.797 439.67 119.273 439.529 117.492C439.435 115.664 439.342 114.258 439.248 113.273C439.154 112.242 439.06 110.695 438.967 108.633C438.873 106.523 438.802 105.117 438.756 104.414C438.709 103.664 438.638 102.117 438.545 99.7734C438.498 97.4297 438.451 96.0234 438.404 95.5547C438.404 95.0859 438.357 93.5625 438.263 90.9844C438.217 88.3594 438.193 86.9062 438.193 86.625C438.146 84.2812 438.052 80.4375 437.912 75.0938C437.818 69.75 437.724 65.5781 437.631 62.5781C437.537 59.5313 437.373 55.8047 437.138 51.3984C436.951 46.9922 436.717 42.9375 436.435 39.2344C435.873 32.0625 435.052 25.9219 433.974 20.8125C433.177 17.2031 432.357 14.4141 431.513 12.4453C430.154 9.16406 429.029 7.35938 428.138 7.03125C425.982 6.51563 423.896 7.52344 421.881 10.0547C419.818 12.6797 417.92 16.7109 416.185 22.1484C414.545 27.2578 413.162 33.2109 412.037 40.0078C409.599 54.7734 408.967 69.0703 410.138 82.8984C410.138 82.8516 410.021 82.7812 409.787 82.6875C409.552 82.5469 409.435 82.4297 409.435 82.3359C408.779 74.9297 408.732 66.7031 409.295 57.6562C410.326 41.9531 412.693 29.0156 416.396 18.8438C419.396 10.7344 422.56 6.53906 425.888 6.25781H426.029C426.92 6.11719 427.787 6.25781 428.631 6.67969C430.927 8.27344 432.967 10.1953 434.748 12.4453C436.576 14.6953 438.052 16.9687 439.177 19.2656C440.349 21.5156 441.334 24.1875 442.131 27.2812C442.974 30.3281 443.607 33.0938 444.029 35.5781C444.451 38.0156 444.779 40.9922 445.013 44.5078C445.248 48.0234 445.388 50.9297 445.435 53.2266C445.482 55.4766 445.529 58.3828 445.576 61.9453C445.623 65.5078 445.67 68.1562 445.717 69.8906C445.81 72.8906 445.951 78.3516 446.138 86.2734C446.326 94.1484 446.513 100.898 446.701 106.523C446.935 112.148 447.263 117.609 447.685 122.906C447.732 123.422 447.849 125.578 448.037 129.375C448.224 133.125 448.435 135.961 448.67 137.883C448.904 139.805 449.279 142.336 449.795 145.477C450.31 148.617 451.06 151.266 452.045 153.422C453.076 155.625 454.295 157.43 455.701 158.836C456.31 159.352 456.662 159.68 456.756 159.82C461.912 161.695 466.318 159.07 469.974 151.945C471.802 148.336 473.256 144.516 474.334 140.484C475.412 136.453 476.467 131.625 477.498 126C479.185 116.906 480.802 105.094 482.349 90.5625C482.818 86.25 483.521 79.0078 484.459 68.8359C485.396 58.6172 486.31 49.7578 487.201 42.2578C488.092 34.7109 489.193 27.4922 490.506 20.6016C490.506 20.6484 490.623 20.7422 490.857 20.8828C491.092 21.0234 491.185 21.1406 491.138 21.2344C489.732 28.6875 488.138 40.9922 486.357 58.1484C486.076 61.0078 485.513 66.8672 484.67 75.7266C483.826 84.5859 483.17 91.1719 482.701 95.4844C482.232 99.7969 481.506 105.422 480.521 112.359C479.537 119.297 478.459 125.578 477.287 131.203C476.537 134.719 475.904 137.531 475.388 139.641C474.873 141.75 474.052 144.281 472.927 147.234C471.849 150.234 470.631 152.836 469.271 155.039C467.771 157.43 465.99 159.141 463.927 160.172C461.865 161.25 459.615 161.32 457.177 160.383ZM510.474 6.75C511.131 7.17188 511.318 7.38281 511.037 7.38281C510.99 7.38281 510.943 7.35938 510.896 7.3125C510.568 7.17188 510.217 6.91406 509.842 6.53906C509.56 6.35156 509.209 6.25781 508.787 6.25781C508.365 6.25781 507.92 6.375 507.451 6.60938C506.607 7.07813 505.787 8.0625 504.99 9.5625C503.49 12.3281 502.06 16.8516 500.701 23.1328C498.826 31.5234 496.67 45.1172 494.232 63.9141C490.576 92.2734 488.584 107.555 488.256 109.758C486.662 120.492 485.162 128.977 483.756 135.211C481.787 144.117 479.56 151.008 477.076 155.883C474.217 161.555 470.888 164.953 467.092 166.078C463.06 167.25 458.279 165.938 452.748 162.141C452.138 161.719 451.506 161.18 450.849 160.523L450.357 159.891C450.404 159.891 450.451 159.914 450.498 159.961C457.06 164.508 462.685 165.234 467.373 162.141C471.357 159.516 474.732 154.031 477.498 145.688C479.138 140.859 480.615 135.258 481.927 128.883C483.24 122.461 484.131 117.609 484.599 114.328C485.068 111 485.865 105.211 486.99 96.9609C487.599 92.4609 488.56 84.8672 489.873 74.1797C491.232 63.4922 492.31 55.2656 493.107 49.5C493.154 49.1719 493.342 47.8359 493.67 45.4922C493.998 43.1484 494.185 41.6953 494.232 41.1328C494.326 40.5703 494.513 39.2578 494.795 37.1953C495.123 35.0859 495.357 33.6328 495.498 32.8359C495.638 31.9922 495.849 30.6797 496.131 28.8984C496.459 27.0703 496.74 25.6172 496.974 24.5391C497.256 23.4609 497.56 22.1719 497.888 20.6719C498.217 19.125 498.568 17.7188 498.943 16.4531C499.318 15.1406 499.717 13.8281 500.138 12.5156C500.185 12.4219 500.279 12.0938 500.42 11.5312C500.607 10.9219 500.724 10.5234 500.771 10.3359C500.865 10.1484 501.006 9.79687 501.193 9.28125C501.381 8.71875 501.521 8.32031 501.615 8.08594C501.756 7.80469 501.943 7.45312 502.177 7.03125C502.412 6.5625 502.623 6.21094 502.81 5.97656C502.998 5.69531 503.232 5.41406 503.513 5.13281C503.795 4.80469 504.076 4.54688 504.357 4.35938C504.779 4.03125 505.248 3.86719 505.763 3.86719C506.279 3.86719 506.701 3.91406 507.029 4.00781C507.357 4.10156 507.802 4.38281 508.365 4.85156C508.927 5.27344 509.279 5.55469 509.42 5.69531C509.56 5.83594 509.912 6.1875 510.474 6.75ZM421.107 120.164C421.717 120.586 422.349 121.125 423.006 121.781L423.498 122.414C423.451 122.414 423.404 122.391 423.357 122.344C415.576 116.859 409.998 108.328 406.623 96.75C403.81 87.0938 402.451 75.5625 402.545 62.1562C402.638 49.7812 404.021 38.1797 406.693 27.3516C407.162 25.5703 407.654 23.8125 408.17 22.0781C408.732 20.2969 409.482 18.2812 410.42 16.0312C411.357 13.7344 412.342 11.6719 413.373 9.84375C414.404 8.01562 415.623 6.32812 417.029 4.78125C418.482 3.1875 419.959 2.03906 421.459 1.33594C423.006 0.585937 424.74 0.375 426.662 0.703125C428.631 1.03125 430.623 2.01563 432.638 3.65625C433.529 4.35938 434.162 4.94531 434.537 5.41406C434.677 5.64844 434.748 5.78906 434.748 5.83594C434.748 5.83594 434.631 5.74219 434.396 5.55469C432.568 4.10156 430.646 3.30469 428.631 3.16406C426.662 2.97656 424.81 3.375 423.076 4.35938C421.388 5.29687 419.842 6.67969 418.435 8.50781C414.498 13.5703 411.334 21.3281 408.943 31.7812C406.552 42.0469 405.31 52.9922 405.217 64.6172C405.123 77.0391 406.318 87.9141 408.802 97.2422C410.115 102.305 411.802 106.805 413.865 110.742C416.209 115.242 418.623 118.383 421.107 120.164ZM547.349 115.805C547.349 116.086 547.349 117.586 547.349 120.305C547.396 122.977 547.443 124.875 547.49 126C547.583 127.078 547.841 128.555 548.263 130.43C548.685 132.305 549.271 133.852 550.021 135.07C549.693 134.555 548.427 133.523 546.224 131.977C544.068 130.383 542.685 129.094 542.076 128.109C541.372 127.031 540.787 125.742 540.318 124.242C539.896 122.695 539.568 121.383 539.333 120.305C539.099 119.18 538.935 117.539 538.841 115.383C538.747 113.18 538.701 111.703 538.701 110.953C538.701 110.156 538.747 108.469 538.841 105.891C538.935 103.312 538.982 101.906 538.982 101.672C538.091 107.438 536.755 112.875 534.974 117.984C534.552 119.156 534.107 120.258 533.638 121.289C533.216 122.32 532.654 123.469 531.951 124.734C531.247 126 530.474 127.078 529.63 127.969C528.833 128.859 527.943 129.633 526.958 130.289C526.021 130.898 524.943 131.203 523.724 131.203C522.505 131.156 521.263 130.758 519.997 130.008C519.669 129.82 519.201 129.398 518.591 128.742C517.982 128.086 517.583 127.711 517.396 127.617C520.865 129.633 524.099 128.906 527.099 125.438C529.349 122.812 531.341 118.711 533.076 113.133C534.716 107.93 535.912 102.164 536.662 95.8359C537.365 90.2578 537.646 84.6562 537.505 79.0312C537.365 75.8906 537.271 74.0156 537.224 73.4062C537.13 75.1875 537.06 76.4531 537.013 77.2031C536.591 89.1094 534.787 100.43 531.599 111.164C531.13 112.711 530.732 113.977 530.404 114.961C530.122 115.898 529.56 117.352 528.716 119.32C527.872 121.242 527.029 122.766 526.185 123.891C525.388 124.969 524.357 125.883 523.091 126.633C521.872 127.383 520.583 127.57 519.224 127.195C519.318 127.289 519.412 127.336 519.505 127.336C519.271 127.289 518.896 127.148 518.38 126.914C518.287 126.914 518.193 126.867 518.099 126.773C516.083 125.836 513.927 124.406 511.63 122.484C509.38 120.562 507.599 118.266 506.287 115.594C503.662 110.25 503.216 102.234 504.951 91.5469C506.919 79.5 510.224 71.8594 514.865 68.625C515.662 68.0625 516.458 67.6641 517.255 67.4297C518.052 67.1484 518.896 67.125 519.787 67.3594C520.677 67.5938 521.404 67.7812 521.966 67.9219C522.529 68.0625 523.302 68.5312 524.287 69.3281C525.271 70.0781 525.927 70.5938 526.255 70.875C526.583 71.1094 527.287 71.7422 528.365 72.7734C529.443 73.7578 530.029 74.2969 530.122 74.3906C530.919 75.1406 531.646 75.7969 532.302 76.3594L532.372 76.4297C529.654 74.7422 527.193 74.2266 524.99 74.8828C523.677 75.2578 522.177 76.5 520.49 78.6094C518.005 81.75 515.919 86.6719 514.232 93.375C512.685 99.5625 512.005 105.586 512.193 111.445C512.287 115.242 512.638 117.914 513.247 119.461C514.372 122.367 515.919 124.664 517.888 126.352C520.794 127.477 523.513 126.094 526.044 122.203C528.06 119.109 529.888 114.562 531.529 108.562C532.841 103.734 533.99 97.9219 534.974 91.125C535.818 84.9844 536.287 79.6875 536.38 75.2344C536.521 71.5781 536.427 69.0938 536.099 67.7812C536.052 67.6406 535.982 67.4297 535.888 67.1484C535.841 66.8672 535.794 66.6797 535.747 66.5859C535.747 66.5391 535.724 66.4688 535.677 66.375C535.63 66.2344 535.583 66.1406 535.537 66.0938L535.747 66.3047C537.154 66.7266 538.747 67.7812 540.529 69.4688C542.31 71.1094 543.622 72.6094 544.466 73.9688C545.076 74.9531 545.568 76.2188 545.943 77.7656C546.318 79.2656 546.529 80.4375 546.576 81.2812C546.669 82.0781 546.74 83.6016 546.787 85.8516C546.88 88.0547 546.927 89.25 546.927 89.4375C547.068 92.5312 547.138 97.0312 547.138 102.938C547.185 108.797 547.255 113.086 547.349 115.805ZM567.068 135.703C567.068 136.875 566.997 139.359 566.857 143.156C566.716 147 566.646 149.906 566.646 151.875C566.646 153.844 566.81 156.305 567.138 159.258C567.466 162.258 568.005 164.883 568.755 167.133C568.521 166.383 567.794 165.609 566.575 164.812C565.357 164.062 564.114 163.242 562.849 162.352C561.63 161.508 560.88 160.641 560.599 159.75C559.989 157.969 559.544 155.883 559.263 153.492C558.982 151.102 558.818 149.203 558.771 147.797C558.724 146.438 558.724 144.141 558.771 140.906C558.818 137.672 558.841 135.727 558.841 135.07C558.841 132.867 559.099 119.391 559.614 94.6406C559.989 76.2656 560.013 63.0469 559.685 54.9844C559.403 48.8906 558.958 44.1094 558.349 40.6406C558.255 40.125 558.044 39.3047 557.716 38.1797C557.388 37.0547 557.177 36.1875 557.083 35.5781C557.083 35.4844 556.943 35.2031 556.661 34.7344C556.38 34.2188 556.263 33.9141 556.31 33.8203H556.38C555.349 32.5078 554.482 31.8281 553.778 31.7812C556.544 32.0625 559.146 33.8203 561.583 37.0547C564.021 40.2891 565.568 43.4531 566.224 46.5469C566.739 48.9375 567.161 51.375 567.489 53.8594C567.818 56.3437 568.028 59.2031 568.122 62.4375C568.216 65.625 568.263 68.0391 568.263 69.6797C568.263 71.2734 568.216 74.1328 568.122 78.2578C568.075 82.3359 568.052 84.7969 568.052 85.6406C568.005 91.5469 567.841 100.102 567.56 111.305C567.278 122.508 567.114 130.641 567.068 135.703ZM591.778 130.781H591.708C590.911 130.594 590.044 130.266 589.106 129.797C586.622 128.672 584.536 127.078 582.848 125.016C581.161 122.953 579.919 120.727 579.122 118.336C578.372 115.945 577.88 113.297 577.645 110.391C577.411 107.484 577.388 104.766 577.575 102.234C577.809 99.7031 578.184 97.1484 578.7 94.5703C579.122 92.4609 579.52 90.6094 579.895 89.0156C580.27 87.4219 580.833 85.4297 581.583 83.0391C582.333 80.6484 583.13 78.5859 583.973 76.8516C584.817 75.1172 585.895 73.4297 587.208 71.7891C588.52 70.1016 589.95 68.8125 591.497 67.9219C592.622 67.3125 593.747 66.9609 594.872 66.8672C595.997 66.7266 597.075 66.8672 598.106 67.2891C599.184 67.6641 600.192 68.1562 601.13 68.7656C602.067 69.3281 603.005 70.1016 603.942 71.0859C604.88 72.0234 605.677 72.8906 606.333 73.6875C607.036 74.4375 607.763 75.3047 608.513 76.2891C608.466 76.2422 608.395 76.1719 608.302 76.0781C608.208 75.9375 608.138 75.8438 608.091 75.7969C608.888 76.7812 609.403 78.0469 609.638 79.5938C610.059 82.4531 609.286 85.8281 607.317 89.7188C605.442 93.4219 602.934 96.9844 599.794 100.406C596.653 103.828 593.606 106.477 590.653 108.352C588.731 109.617 587.044 110.414 585.591 110.742C585.591 110.883 585.567 111.094 585.52 111.375C585.52 111.609 585.52 111.797 585.52 111.938C587.067 111.469 588.567 110.789 590.02 109.898C596.911 105.961 602.583 100.359 607.036 93.0938C608.442 90.8438 609.52 88.6406 610.27 86.4844C611.02 84.2812 611.278 81.9141 611.044 79.3828C610.856 76.8047 609.919 74.5781 608.231 72.7031C608.138 72.6094 608.091 72.5391 608.091 72.4922C608.231 72.4922 608.466 72.6562 608.794 72.9844C609.497 73.5469 610.106 74.1094 610.622 74.6719C613.341 77.7188 614.395 81.3047 613.786 85.4297C612.755 92.3203 608.419 99.2812 600.778 106.312C597.45 109.406 594.286 111.68 591.286 113.133C588.942 114.258 586.997 114.797 585.45 114.75C585.45 114.844 585.427 114.984 585.38 115.172C585.38 115.359 585.38 115.5 585.38 115.594C585.38 118.406 585.567 120.633 585.942 122.273C586.13 123.07 586.411 123.961 586.786 124.945C587.208 125.883 587.911 126.961 588.895 128.18C589.927 129.398 591.052 130.125 592.27 130.359C595.411 130.594 598.786 129.539 602.395 127.195C605.02 125.508 607.294 123.422 609.216 120.938C611.138 118.453 612.52 115.758 613.364 112.852L613.716 113.133C613.997 113.32 614.114 113.438 614.067 113.484C613.223 116.484 611.77 119.273 609.708 121.852C607.692 124.383 605.302 126.492 602.536 128.18C598.598 130.523 595.013 131.391 591.778 130.781ZM607.036 74.8125C605.958 74.2969 604.88 74.0156 603.802 73.9688C602.723 73.9219 601.739 74.1094 600.848 74.5312C599.958 74.9062 599.091 75.4219 598.247 76.0781C597.403 76.7344 596.606 77.5781 595.856 78.6094C595.153 79.5938 594.473 80.6016 593.817 81.6328C593.208 82.6641 592.622 83.8359 592.059 85.1484C591.497 86.4141 591.005 87.6094 590.583 88.7344C590.161 89.8125 589.763 90.9844 589.388 92.25C589.013 93.4688 588.708 94.5 588.473 95.3438C588.239 96.1406 588.005 96.9844 587.77 97.875C586.692 102.234 585.989 106.266 585.661 109.969C586.505 109.688 587.934 108.938 589.95 107.719C595.997 103.781 601.106 98.3906 605.278 91.5469C606.028 90.2812 606.684 89.0156 607.247 87.75C607.809 86.4375 608.302 85.0078 608.723 83.4609C609.145 81.9141 609.239 80.4141 609.005 78.9609C608.817 77.4609 608.278 76.1953 607.388 75.1641L607.036 74.8125ZM617.231 113.062L617.653 113.414C617.888 113.648 618.075 113.859 618.216 114.047C618.403 114.188 618.497 114.305 618.497 114.398C617.841 118.992 615.145 123.516 610.411 127.969C605.442 132.609 600.427 134.742 595.364 134.367C595.27 134.367 595.153 134.32 595.013 134.227C594.872 134.133 594.731 134.039 594.591 133.945C594.497 133.805 594.38 133.664 594.239 133.523C594.098 133.383 594.005 133.289 593.958 133.242C593.911 133.195 593.7 132.961 593.325 132.539C592.95 132.117 592.716 131.906 592.622 131.906C597.731 132.281 602.747 130.172 607.669 125.578C612.356 121.125 615.052 116.578 615.755 111.938L616.106 112.219C616.341 112.406 616.575 112.594 616.809 112.781C617.044 112.922 617.184 113.016 617.231 113.062ZM670.629 116.086C670.629 116.508 670.536 117.961 670.348 120.445C670.208 122.93 670.137 124.781 670.137 126C670.137 127.219 670.278 128.766 670.559 130.641C670.887 132.469 671.426 133.945 672.176 135.07C671.801 134.508 670.512 133.453 668.309 131.906C666.153 130.312 664.77 129.047 664.161 128.109C663.129 126.562 662.426 124.523 662.051 121.992C661.676 119.414 661.536 117.141 661.629 115.172C661.723 113.203 661.911 110.648 662.192 107.508C662.52 104.367 662.708 102.305 662.754 101.32C663.176 92.2266 663.317 86.1797 663.176 83.1797C662.942 79.4297 662.684 76.9922 662.403 75.8672C661.653 73.0078 660.458 71.0156 658.817 69.8906C657.317 69.7969 655.676 70.7812 653.895 72.8438C652.02 75.0938 650.075 78.5859 648.059 83.3203C646.137 87.8672 644.403 93 642.856 98.7188C639.575 110.766 637.911 122.227 637.864 133.102C638.192 133.852 638.497 134.508 638.778 135.07C638.45 134.555 637.184 133.523 634.981 131.977C632.825 130.383 631.442 129.094 630.833 128.109C629.708 126.375 628.864 124.125 628.301 121.359C627.786 118.594 627.504 116.18 627.458 114.117C627.458 112.055 627.504 109.289 627.598 105.82C627.692 102.352 627.739 100.078 627.739 99C627.645 88.2188 627.528 81.75 627.387 79.5938C626.965 70.9219 625.817 66.4219 623.942 66.0938C625.348 66.375 627.012 67.3828 628.934 69.1172C630.903 70.8516 632.333 72.4688 633.223 73.9688C633.833 74.9531 634.325 76.2188 634.7 77.7656C635.075 79.2656 635.286 80.4375 635.333 81.2812C635.426 82.0781 635.497 83.6016 635.543 85.8516C635.637 88.0547 635.684 89.25 635.684 89.4375C635.825 92.625 635.895 97.4062 635.895 103.781C637.114 97.7344 638.731 91.8281 640.747 86.0625C643.043 79.5938 645.387 74.625 647.778 71.1562C650.309 67.3594 652.817 65.4141 655.301 65.3203C655.676 65.3203 656.168 65.7422 656.778 66.5859C657.387 67.3828 657.786 67.7812 657.973 67.7812C655.583 67.875 653.098 69.8203 650.52 73.6172C647.989 77.2734 645.622 82.2188 643.418 88.4531C639.106 100.734 636.715 113.133 636.247 125.648C636.387 127.711 636.692 129.562 637.161 131.203C637.301 125.344 637.934 119.039 639.059 112.289C641.403 98.9766 644.684 87.9609 648.903 79.2422C651.903 72.9141 654.715 69.5859 657.34 69.2578H657.411H657.833H658.043C658.372 69.2578 658.676 69.3281 658.958 69.4688C660.364 69.8906 661.887 70.8516 663.528 72.3516C665.215 73.8516 666.622 75.3516 667.747 76.8516C668.731 78.1641 669.481 79.7109 669.997 81.4922C670.559 83.2266 670.911 84.7734 671.051 86.1328C671.192 87.4453 671.286 89.1797 671.333 91.3359C671.379 95.2266 671.379 97.9688 671.333 99.5625C671.286 101.156 671.168 103.922 670.981 107.859C670.793 111.75 670.676 114.492 670.629 116.086ZM735.137 45.5625C729.887 45.5625 720.418 46.125 706.731 47.25C699.278 47.9062 693.559 48.3516 689.574 48.5859C690.559 53.7422 691.098 59.9062 691.192 67.0781C691.332 74.25 691.285 80.4375 691.051 85.6406C691.004 91.5469 690.84 100.102 690.559 111.305C690.278 122.508 690.113 130.641 690.067 135.703C690.067 136.875 689.996 139.359 689.856 143.156C689.715 147 689.645 149.906 689.645 151.875C689.645 153.844 689.809 156.305 690.137 159.258C690.465 162.258 691.004 164.883 691.754 167.133C691.52 166.383 690.793 165.609 689.574 164.812C688.356 164.062 687.113 163.242 685.848 162.352C684.629 161.508 683.879 160.641 683.598 159.75C682.988 157.969 682.543 155.883 682.262 153.492C681.981 151.102 681.817 149.203 681.77 147.797C681.723 146.438 681.723 144.141 681.77 140.906C681.817 137.672 681.84 135.727 681.84 135.07C681.84 132.867 682.098 119.391 682.613 94.6406C682.988 76.2656 683.012 63.0469 682.684 54.9844C682.637 53.7656 682.52 51.7734 682.332 49.0078C681.91 49.0547 681.278 49.0781 680.434 49.0781C679.59 49.0781 678.957 49.1016 678.535 49.1484C667.988 49.5234 659.973 49.2188 654.488 48.2344C648.207 47.1094 643.403 44.625 640.074 40.7812C637.262 37.5 637.543 32.8828 640.918 26.9297L641.621 27.4922C642.09 27.8672 642.559 28.2656 643.028 28.6875C643.449 29.0625 643.637 29.2969 643.59 29.3906C641.668 32.7656 640.731 35.625 640.778 37.9688C640.778 39.0469 641.035 40.1484 641.551 41.2734C641.645 41.4141 641.785 41.625 641.973 41.9062C642.113 42.1406 642.207 42.3281 642.254 42.4688C642.395 42.6094 642.559 42.7266 642.746 42.8203C644.293 43.7578 646.145 44.5078 648.301 45.0703C650.457 45.6328 652.309 46.0078 653.856 46.1953C655.403 46.3828 657.395 46.5469 659.832 46.6875C665.598 47.0156 673.028 46.9219 682.121 46.4062C681.84 43.875 681.582 41.9766 681.348 40.7109C681.254 40.1016 681.02 39.1875 680.645 37.9688C680.457 38.4375 680.223 38.8125 679.942 39.0938C678.395 40.8281 675.324 42.0703 670.731 42.8203C666.137 43.5703 661.707 43.6641 657.442 43.1016C655.942 42.9141 654.442 42.6328 652.942 42.2578C651.442 41.8359 649.871 41.25 648.231 40.5C646.59 39.75 645.348 38.7188 644.504 37.4062C643.66 36.0937 643.426 34.6172 643.801 32.9766C643.801 33.0234 643.942 33.1172 644.223 33.2578C644.457 33.3984 644.551 33.5156 644.504 33.6094C643.848 36.7969 645.582 39.2109 649.707 40.8516C656.129 43.3359 663.488 43.6641 671.785 41.8359C675.488 41.0391 677.973 39.9375 679.238 38.5312C680.035 37.6406 680.317 36.6328 680.082 35.5078C680.082 35.4141 679.942 35.1328 679.66 34.6641C679.379 34.1953 679.262 33.9141 679.309 33.8203H679.379L679.309 33.75C678.324 32.4844 677.481 31.8281 676.778 31.7812C676.824 31.7812 677.129 31.8516 677.692 31.9922H677.762C680.293 32.6016 682.637 34.3828 684.793 37.3359C686.949 40.2422 688.379 43.125 689.082 45.9844C691.801 45.7969 696.278 45.4219 702.512 44.8594C708.793 44.2969 714.278 43.875 718.965 43.5938C723.653 43.2656 728.153 43.1016 732.465 43.1016C732.793 43.1016 733.262 43.5234 733.871 44.3672C734.481 45.1641 734.903 45.5625 735.137 45.5625ZM701.137 66.0938C702.543 66.3281 704.137 67.3359 705.918 69.1172C707.699 70.8516 709.012 72.4688 709.855 73.9688C710.418 74.9531 710.816 76.2188 711.051 77.7656C711.285 79.3125 711.402 80.4844 711.402 81.2812C711.449 82.0312 711.426 83.5547 711.332 85.8516C711.238 88.1016 711.191 89.2969 711.191 89.4375C711.097 92.5781 710.863 97.1016 710.488 103.008C710.113 108.867 709.879 113.133 709.785 115.805C709.785 116.273 709.691 117.797 709.504 120.375C709.363 122.906 709.293 124.758 709.293 125.93C709.293 127.102 709.433 128.625 709.715 130.5C710.043 132.328 710.535 133.852 711.191 135.07C710.91 134.508 709.715 133.453 707.605 131.906C705.543 130.359 704.23 129.094 703.668 128.109C702.683 126.375 702.027 124.148 701.699 121.43C701.371 118.664 701.254 116.227 701.347 114.117C701.488 112.008 701.722 109.266 702.051 105.891C702.426 102.469 702.637 100.172 702.683 99C703.293 87.5156 703.621 81.0469 703.668 79.5938C703.902 70.9688 703.058 66.4688 701.137 66.0938ZM709.433 63C706.902 64.5938 704.137 63.5391 701.137 59.8359C700.527 59.3203 699.965 58.7578 699.449 58.1484C699.074 57.6797 698.769 57.1641 698.535 56.6016C697.879 54.6797 698.629 52.7813 700.785 50.9062C702.707 49.2188 704.394 48.7969 705.847 49.6406C705.894 49.5937 706.058 49.7109 706.34 49.9922C707.699 50.9766 708.73 51.9609 709.433 52.9453C709.902 53.5547 710.183 54.0937 710.277 54.5625C710.652 55.7812 710.605 56.9766 710.137 58.1484C709.808 59.1797 709.222 60.0938 708.379 60.8906C707.582 61.6875 706.691 62.1094 705.707 62.1562C704.582 62.2031 703.48 61.8047 702.402 60.9609C702.308 60.9141 702.168 60.8203 701.98 60.6797C701.84 60.5391 701.746 60.4219 701.699 60.3281C702.965 61.9219 704.347 62.8359 705.847 63.0703C707.16 63.2578 708.332 62.8828 709.363 61.9453C710.441 61.0078 711.238 59.8359 711.754 58.4297C712.269 57.0703 712.433 55.7344 712.246 54.4219C712.199 53.8594 712.012 53.2969 711.683 52.7344C711.637 52.6875 711.59 52.6172 711.543 52.5234C711.496 52.4297 711.449 52.3594 711.402 52.3125H711.332C710.91 52.125 710.652 52.0078 710.558 51.9609C710.465 51.9141 710.347 51.7969 710.207 51.6094C710.066 51.4219 709.972 51.3281 709.926 51.3281C710.629 51.5156 711.262 51.9375 711.824 52.5938C712.387 53.25 712.738 53.9531 712.879 54.7031C713.207 56.2031 713.019 57.7734 712.316 59.4141C711.66 61.0078 710.699 62.2031 709.433 63ZM703.316 53.5078C701.535 55.1953 700.808 56.8828 701.137 58.5703C701.183 58.8516 701.301 59.1562 701.488 59.4844C702.144 59.7656 702.871 59.7891 703.668 59.5547C705.449 59.0859 706.691 57.7969 707.394 55.6875C707.722 54.5625 707.84 53.625 707.746 52.875C707.699 52.5469 707.582 52.1719 707.394 51.75H707.324L707.254 51.6797C706.785 51.6797 706.34 51.75 705.918 51.8906C705.121 52.125 704.254 52.6641 703.316 53.5078ZM765.855 116.086C765.855 116.508 765.761 117.961 765.574 120.445C765.433 122.93 765.363 124.781 765.363 126C765.363 127.219 765.503 128.766 765.785 130.641C766.113 132.469 766.652 133.945 767.402 135.07C767.027 134.508 765.738 133.453 763.535 131.906C761.378 130.312 759.996 129.047 759.386 128.109C758.355 126.562 757.652 124.523 757.277 121.992C756.902 119.414 756.761 117.141 756.855 115.172C756.949 113.203 757.136 110.648 757.417 107.508C757.746 104.367 757.933 102.305 757.98 101.32C758.402 92.2266 758.542 86.1797 758.402 83.1797C758.167 79.4297 757.91 76.9922 757.628 75.8672C756.878 73.0078 755.683 71.0156 754.042 69.8906C752.542 69.7969 750.902 70.7812 749.121 72.8438C747.246 75.0938 745.3 78.5859 743.285 83.3203C741.363 87.8672 739.628 93 738.082 98.7188C734.8 110.766 733.136 122.227 733.089 133.102C733.417 133.852 733.722 134.508 734.003 135.07C733.675 134.555 732.41 133.523 730.207 131.977C728.05 130.383 726.667 129.094 726.058 128.109C724.933 126.375 724.089 124.125 723.527 121.359C723.011 118.594 722.73 116.18 722.683 114.117C722.683 112.055 722.73 109.289 722.824 105.82C722.917 102.352 722.964 100.078 722.964 99C722.871 88.2188 722.753 81.75 722.613 79.5938C722.191 70.9219 721.042 66.4219 719.167 66.0938C720.574 66.375 722.238 67.3828 724.16 69.1172C726.128 70.8516 727.558 72.4688 728.449 73.9688C729.058 74.9531 729.55 76.2188 729.925 77.7656C730.3 79.2656 730.511 80.4375 730.558 81.2812C730.652 82.0781 730.722 83.6016 730.769 85.8516C730.863 88.0547 730.91 89.25 730.91 89.4375C731.05 92.625 731.121 97.4062 731.121 103.781C732.339 97.7344 733.957 91.8281 735.972 86.0625C738.269 79.5938 740.613 74.625 743.003 71.1562C745.535 67.3594 748.042 65.4141 750.527 65.3203C750.902 65.3203 751.394 65.7422 752.003 66.5859C752.613 67.3828 753.011 67.7812 753.199 67.7812C750.808 67.875 748.324 69.8203 745.746 73.6172C743.214 77.2734 740.847 82.2188 738.644 88.4531C734.332 100.734 731.941 113.133 731.472 125.648C731.613 127.711 731.917 129.562 732.386 131.203C732.527 125.344 733.16 119.039 734.285 112.289C736.628 98.9766 739.91 87.9609 744.128 79.2422C747.128 72.9141 749.941 69.5859 752.566 69.2578H752.636H753.058H753.269C753.597 69.2578 753.902 69.3281 754.183 69.4688C755.589 69.8906 757.113 70.8516 758.753 72.3516C760.441 73.8516 761.847 75.3516 762.972 76.8516C763.957 78.1641 764.707 79.7109 765.222 81.4922C765.785 83.2266 766.136 84.7734 766.277 86.1328C766.417 87.4453 766.511 89.1797 766.558 91.3359C766.605 95.2266 766.605 97.9688 766.558 99.5625C766.511 101.156 766.394 103.922 766.207 107.859C766.019 111.75 765.902 114.492 765.855 116.086ZM789.722 130.781H789.652C788.855 130.594 787.987 130.266 787.05 129.797C784.566 128.672 782.48 127.078 780.792 125.016C779.105 122.953 777.862 120.727 777.066 118.336C776.316 115.945 775.823 113.297 775.589 110.391C775.355 107.484 775.331 104.766 775.519 102.234C775.753 99.7031 776.128 97.1484 776.644 94.5703C777.066 92.4609 777.464 90.6094 777.839 89.0156C778.214 87.4219 778.777 85.4297 779.527 83.0391C780.277 80.6484 781.073 78.5859 781.917 76.8516C782.761 75.1172 783.839 73.4297 785.152 71.7891C786.464 70.1016 787.894 68.8125 789.441 67.9219C790.566 67.3125 791.691 66.9609 792.816 66.8672C793.941 66.7266 795.019 66.8672 796.05 67.2891C797.128 67.6641 798.136 68.1562 799.073 68.7656C800.011 69.3281 800.948 70.1016 801.886 71.0859C802.823 72.0234 803.62 72.8906 804.277 73.6875C804.98 74.4375 805.706 75.3047 806.456 76.2891C806.409 76.2422 806.339 76.1719 806.245 76.0781C806.152 75.9375 806.081 75.8438 806.034 75.7969C806.831 76.7812 807.347 78.0469 807.581 79.5938C808.003 82.4531 807.23 85.8281 805.261 89.7188C803.386 93.4219 800.878 96.9844 797.737 100.406C794.597 103.828 791.55 106.477 788.597 108.352C786.675 109.617 784.987 110.414 783.534 110.742C783.534 110.883 783.511 111.094 783.464 111.375C783.464 111.609 783.464 111.797 783.464 111.938C785.011 111.469 786.511 110.789 787.964 109.898C794.855 105.961 800.527 100.359 804.98 93.0938C806.386 90.8438 807.464 88.6406 808.214 86.4844C808.964 84.2812 809.222 81.9141 808.987 79.3828C808.8 76.8047 807.862 74.5781 806.175 72.7031C806.081 72.6094 806.034 72.5391 806.034 72.4922C806.175 72.4922 806.409 72.6562 806.737 72.9844C807.441 73.5469 808.05 74.1094 808.566 74.6719C811.284 77.7188 812.339 81.3047 811.73 85.4297C810.698 92.3203 806.362 99.2812 798.722 106.312C795.394 109.406 792.23 111.68 789.23 113.133C786.886 114.258 784.941 114.797 783.394 114.75C783.394 114.844 783.37 114.984 783.323 115.172C783.323 115.359 783.323 115.5 783.323 115.594C783.323 118.406 783.511 120.633 783.886 122.273C784.073 123.07 784.355 123.961 784.73 124.945C785.152 125.883 785.855 126.961 786.839 128.18C787.87 129.398 788.995 130.125 790.214 130.359C793.355 130.594 796.73 129.539 800.339 127.195C802.964 125.508 805.237 123.422 807.159 120.938C809.081 118.453 810.464 115.758 811.308 112.852L811.659 113.133C811.941 113.32 812.058 113.438 812.011 113.484C811.167 116.484 809.714 119.273 807.652 121.852C805.636 124.383 803.245 126.492 800.48 128.18C796.542 130.523 792.956 131.391 789.722 130.781ZM804.98 74.8125C803.902 74.2969 802.823 74.0156 801.745 73.9688C800.667 73.9219 799.683 74.1094 798.792 74.5312C797.902 74.9062 797.034 75.4219 796.191 76.0781C795.347 76.7344 794.55 77.5781 793.8 78.6094C793.097 79.5938 792.417 80.6016 791.761 81.6328C791.152 82.6641 790.566 83.8359 790.003 85.1484C789.441 86.4141 788.948 87.6094 788.527 88.7344C788.105 89.8125 787.706 90.9844 787.331 92.25C786.956 93.4688 786.652 94.5 786.417 95.3438C786.183 96.1406 785.948 96.9844 785.714 97.875C784.636 102.234 783.933 106.266 783.605 109.969C784.448 109.688 785.878 108.938 787.894 107.719C793.941 103.781 799.05 98.3906 803.222 91.5469C803.972 90.2812 804.628 89.0156 805.191 87.75C805.753 86.4375 806.245 85.0078 806.667 83.4609C807.089 81.9141 807.183 80.4141 806.948 78.9609C806.761 77.4609 806.222 76.1953 805.331 75.1641L804.98 74.8125ZM815.175 113.062L815.597 113.414C815.831 113.648 816.019 113.859 816.159 114.047C816.347 114.188 816.441 114.305 816.441 114.398C815.784 118.992 813.089 123.516 808.355 127.969C803.386 132.609 798.37 134.742 793.308 134.367C793.214 134.367 793.097 134.32 792.956 134.227C792.816 134.133 792.675 134.039 792.534 133.945C792.441 133.805 792.323 133.664 792.183 133.523C792.042 133.383 791.948 133.289 791.902 133.242C791.855 133.195 791.644 132.961 791.269 132.539C790.894 132.117 790.659 131.906 790.566 131.906C795.675 132.281 800.691 130.172 805.612 125.578C810.3 121.125 812.995 116.578 813.698 111.938L814.05 112.219C814.284 112.406 814.519 112.594 814.753 112.781C814.987 112.922 815.128 113.016 815.175 113.062Z" fill="white"/>
<path d="M229.73 233.302H214.813V249H210.126V213.453H232.147V217.311H214.813V229.469H229.73V233.302ZM249.188 226.637C248.505 226.523 247.764 226.466 246.967 226.466C244.005 226.466 241.994 227.727 240.937 230.25V249H236.42V222.584H240.814L240.888 225.636C242.369 223.276 244.468 222.096 247.187 222.096C248.065 222.096 248.733 222.21 249.188 222.438V226.637ZM251.679 235.548C251.679 232.96 252.183 230.632 253.192 228.565C254.218 226.498 255.634 224.903 257.44 223.78C259.263 222.657 261.339 222.096 263.666 222.096C267.263 222.096 270.168 223.341 272.382 225.831C274.612 228.321 275.727 231.633 275.727 235.768V236.085C275.727 238.657 275.23 240.968 274.237 243.019C273.261 245.053 271.853 246.64 270.014 247.779C268.191 248.919 266.091 249.488 263.715 249.488C260.134 249.488 257.229 248.243 254.999 245.753C252.785 243.263 251.679 239.967 251.679 235.865V235.548ZM256.22 236.085C256.22 239.015 256.895 241.367 258.246 243.141C259.613 244.915 261.436 245.802 263.715 245.802C266.01 245.802 267.833 244.907 269.184 243.116C270.535 241.31 271.21 238.787 271.21 235.548C271.21 232.651 270.518 230.307 269.135 228.517C267.768 226.71 265.945 225.807 263.666 225.807C261.436 225.807 259.638 226.694 258.271 228.468C256.903 230.242 256.22 232.781 256.22 236.085ZM285.663 222.584L285.81 225.904C287.828 223.365 290.465 222.096 293.72 222.096C299.302 222.096 302.118 225.245 302.167 231.544V249H297.65V231.52C297.634 229.615 297.195 228.207 296.332 227.296C295.486 226.384 294.159 225.929 292.353 225.929C290.888 225.929 289.602 226.319 288.495 227.101C287.388 227.882 286.526 228.907 285.907 230.177V249H281.391V222.584H285.663ZM315.106 216.188V222.584H320.038V226.075H315.106V242.457C315.106 243.515 315.326 244.312 315.766 244.85C316.205 245.37 316.954 245.631 318.012 245.631C318.533 245.631 319.249 245.533 320.16 245.338V249C318.972 249.326 317.816 249.488 316.693 249.488C314.675 249.488 313.153 248.878 312.128 247.657C311.103 246.437 310.59 244.703 310.59 242.457V226.075H305.78V222.584H310.59V216.188H315.106ZM336.298 249.488C332.717 249.488 329.804 248.316 327.558 245.973C325.312 243.613 324.188 240.463 324.188 236.524V235.694C324.188 233.074 324.685 230.738 325.678 228.688C326.687 226.62 328.087 225.009 329.877 223.854C331.684 222.682 333.637 222.096 335.736 222.096C339.171 222.096 341.84 223.227 343.744 225.489C345.648 227.752 346.601 230.991 346.601 235.206V237.086H328.705C328.77 239.69 329.527 241.798 330.976 243.409C332.44 245.004 334.296 245.802 336.542 245.802C338.137 245.802 339.488 245.476 340.595 244.825C341.701 244.174 342.67 243.312 343.5 242.237L346.259 244.386C344.045 247.787 340.725 249.488 336.298 249.488ZM335.736 225.807C333.913 225.807 332.383 226.474 331.146 227.809C329.91 229.127 329.145 230.982 328.852 233.375H342.084V233.033C341.954 230.738 341.335 228.964 340.229 227.711C339.122 226.441 337.624 225.807 335.736 225.807ZM356.122 222.584L356.269 225.904C358.287 223.365 360.924 222.096 364.179 222.096C369.761 222.096 372.577 225.245 372.626 231.544V249H368.109V231.52C368.093 229.615 367.654 228.207 366.791 227.296C365.945 226.384 364.618 225.929 362.812 225.929C361.347 225.929 360.061 226.319 358.954 227.101C357.847 227.882 356.985 228.907 356.366 230.177V249H351.85V222.584H356.122ZM378.339 235.572C378.339 231.52 379.299 228.264 381.22 225.807C383.14 223.333 385.655 222.096 388.764 222.096C391.856 222.096 394.306 223.154 396.112 225.27V211.5H400.629V249H396.479L396.259 246.168C394.452 248.382 391.938 249.488 388.715 249.488C385.655 249.488 383.157 248.235 381.22 245.729C379.299 243.222 378.339 239.951 378.339 235.914V235.572ZM382.855 236.085C382.855 239.08 383.474 241.424 384.711 243.116C385.948 244.809 387.657 245.655 389.838 245.655C392.702 245.655 394.794 244.369 396.112 241.798V229.664C394.761 227.174 392.686 225.929 389.887 225.929C387.673 225.929 385.948 226.783 384.711 228.492C383.474 230.201 382.855 232.732 382.855 236.085ZM440.863 232.569H425.458V245.167H443.354V249H420.771V213.453H443.109V217.311H425.458V228.736H440.863V232.569ZM452.753 222.584L452.899 225.904C454.918 223.365 457.554 222.096 460.81 222.096C466.392 222.096 469.208 225.245 469.257 231.544V249H464.74V231.52C464.724 229.615 464.285 228.207 463.422 227.296C462.576 226.384 461.249 225.929 459.442 225.929C457.978 225.929 456.692 226.319 455.585 227.101C454.478 227.882 453.616 228.907 452.997 230.177V249H448.48V222.584H452.753ZM474.994 235.572C474.994 231.454 475.946 228.183 477.851 225.758C479.755 223.316 482.278 222.096 485.419 222.096C488.642 222.096 491.156 223.235 492.963 225.514L493.183 222.584H497.309V248.365C497.309 251.783 496.291 254.477 494.257 256.446C492.239 258.416 489.521 259.4 486.103 259.4C484.198 259.4 482.335 258.993 480.512 258.18C478.689 257.366 477.297 256.251 476.337 254.835L478.681 252.125C480.618 254.518 482.986 255.714 485.785 255.714C487.982 255.714 489.691 255.095 490.912 253.858C492.149 252.621 492.768 250.88 492.768 248.634V246.363C490.961 248.447 488.495 249.488 485.37 249.488C482.278 249.488 479.771 248.243 477.851 245.753C475.946 243.263 474.994 239.869 474.994 235.572ZM479.535 236.085C479.535 239.063 480.146 241.407 481.366 243.116C482.587 244.809 484.296 245.655 486.493 245.655C489.341 245.655 491.433 244.361 492.768 241.773V229.713C491.384 227.19 489.309 225.929 486.542 225.929C484.345 225.929 482.628 226.783 481.391 228.492C480.154 230.201 479.535 232.732 479.535 236.085ZM509.052 249H504.535V222.584H509.052V249ZM504.169 215.577C504.169 214.845 504.389 214.226 504.828 213.722C505.284 213.217 505.951 212.965 506.83 212.965C507.709 212.965 508.376 213.217 508.832 213.722C509.288 214.226 509.516 214.845 509.516 215.577C509.516 216.31 509.288 216.92 508.832 217.408C508.376 217.896 507.709 218.141 506.83 218.141C505.951 218.141 505.284 217.896 504.828 217.408C504.389 216.92 504.169 216.31 504.169 215.577ZM520.575 222.584L520.722 225.904C522.74 223.365 525.377 222.096 528.632 222.096C534.215 222.096 537.03 225.245 537.079 231.544V249H532.562V231.52C532.546 229.615 532.107 228.207 531.244 227.296C530.398 226.384 529.071 225.929 527.265 225.929C525.8 225.929 524.514 226.319 523.407 227.101C522.3 227.882 521.438 228.907 520.819 230.177V249H516.303V222.584H520.575ZM554.853 249.488C551.272 249.488 548.358 248.316 546.112 245.973C543.866 243.613 542.743 240.463 542.743 236.524V235.694C542.743 233.074 543.24 230.738 544.232 228.688C545.242 226.62 546.641 225.009 548.432 223.854C550.238 222.682 552.191 222.096 554.291 222.096C557.725 222.096 560.395 223.227 562.299 225.489C564.203 227.752 565.155 230.991 565.155 235.206V237.086H547.26C547.325 239.69 548.082 241.798 549.53 243.409C550.995 245.004 552.851 245.802 555.097 245.802C556.692 245.802 558.043 245.476 559.149 244.825C560.256 244.174 561.225 243.312 562.055 242.237L564.813 244.386C562.6 247.787 559.28 249.488 554.853 249.488ZM554.291 225.807C552.468 225.807 550.938 226.474 549.701 227.809C548.464 229.127 547.699 230.982 547.406 233.375H560.639V233.033C560.508 230.738 559.89 228.964 558.783 227.711C557.676 226.441 556.179 225.807 554.291 225.807ZM581.366 249.488C577.785 249.488 574.872 248.316 572.626 245.973C570.38 243.613 569.257 240.463 569.257 236.524V235.694C569.257 233.074 569.753 230.738 570.746 228.688C571.755 226.62 573.155 225.009 574.945 223.854C576.752 222.682 578.705 222.096 580.805 222.096C584.239 222.096 586.908 223.227 588.812 225.489C590.717 227.752 591.669 230.991 591.669 235.206V237.086H573.773C573.839 239.69 574.595 241.798 576.044 243.409C577.509 245.004 579.364 245.802 581.61 245.802C583.205 245.802 584.556 245.476 585.663 244.825C586.77 244.174 587.738 243.312 588.568 242.237L591.327 244.386C589.114 247.787 585.793 249.488 581.366 249.488ZM580.805 225.807C578.982 225.807 577.452 226.474 576.215 227.809C574.978 229.127 574.213 230.982 573.92 233.375H587.152V233.033C587.022 230.738 586.404 228.964 585.297 227.711C584.19 226.441 582.693 225.807 580.805 225.807ZM609.687 226.637C609.003 226.523 608.262 226.466 607.465 226.466C604.503 226.466 602.493 227.727 601.435 230.25V249H596.918V222.584H601.312L601.386 225.636C602.867 223.276 604.966 222.096 607.685 222.096C608.563 222.096 609.231 222.21 609.687 222.438V226.637Z" fill="white"/>
</svg>
